@startuml

package "odoo EE" {
    class account_reports
}

package "Odoo CE" {
    class base
    class account
    class l10n_latam_invoice_document
    class 10n_latam_invoice_document
}

package "adhoc" {
    class account_payment_group
    class account_check
}

package "localizacion paraguay" {
    class l10n_py
    class l10n_py_invoice_document
    class l10n_py_reports
    class l10n_py_vat_book
    class partner_ruc_unique
    class l10n_py_check_printing
}

10n_latam_invoice_document <|-- l10n_py
account <|-- l10n_py

base <|--- l10n_py_invoice_document
l10n_py <|-- l10n_py_invoice_document
account <|--- l10n_py_invoice_document
l10n_latam_invoice_document <|-- l10n_py_invoice_document

account <|-- l10n_py_reports
l10n_py_invoice_document <|-- l10n_py_reports
account_payment_group <|-- l10n_py_reports

l10n_py <|-- l10n_py_vat_book
l10n_py_reports <|-- l10n_py_vat_book
l10n_py_invoice_document <|-- l10n_py_vat_book
account_reports <|-- l10n_py_vat_book

base <|-- partner_ruc_unique
l10n_py_invoice_document <|-- partner_ruc_unique
account_check <|-- l10n_py_check_printing

@enduml
